<?xml version="1.0" encoding="UTF-8"?>
<!DOCTYPE svg PUBLIC "-//W3C//DTD SVG 1.1//EN" "http://www.w3.org/Graphics/SVG/1.1/DTD/svg11.dtd">
<svg xmlns="http://www.w3.org/2000/svg" version="1.1" width="490px" height="149px" style="shape-rendering:geometricPrecision; text-rendering:geometricPrecision; image-rendering:optimizeQuality; fill-rule:evenodd; clip-rule:evenodd" xmlns:xlink="http://www.w3.org/1999/xlink">
<g><path style="opacity:0.077" fill="#e5edf0" d="M 73.5,6.5 C 76.9841,5.83465 80.6508,5.50131 84.5,5.5C 88.5652,5.51115 92.2319,6.17782 95.5,7.5C 95.1667,7.5 94.8333,7.5 94.5,7.5C 87.6866,6.50881 80.6866,6.17547 73.5,6.5 Z"/></g>
<g><path style="opacity:0.822" fill="#76bfda" d="M 73.5,6.5 C 80.6866,6.17547 87.6866,6.50881 94.5,7.5C 87.8333,7.5 81.1667,7.5 74.5,7.5C 74.8261,16.0168 74.4927,24.3501 73.5,32.5C 73.5,23.8333 73.5,15.1667 73.5,6.5 Z"/></g>
<g><path style="opacity:1" fill="#33b6e7" d="M 94.5,7.5 C 94.5,15.8333 94.5,24.1667 94.5,32.5C 98.8333,32.5 103.167,32.5 107.5,32.5C 107.5,39.5 107.5,46.5 107.5,53.5C 103.5,53.5 99.5,53.5 95.5,53.5C 93.5084,81.1467 92.8417,109.147 93.5,137.5C 87.1667,137.5 80.8333,137.5 74.5,137.5C 74.5,109.5 74.5,81.5 74.5,53.5C 66.9809,53.175 59.6476,53.5084 52.5,54.5C 51.1779,54.67 50.0113,54.3366 49,53.5C 47.7659,49.2848 46.2659,45.2848 44.5,41.5C 44.6427,39.7376 44.3094,38.0709 43.5,36.5C 44.3398,35.265 45.3398,34.265 46.5,33.5C 55.4719,32.6529 64.4719,32.3195 73.5,32.5C 74.4927,24.3501 74.8261,16.0168 74.5,7.5C 81.1667,7.5 87.8333,7.5 94.5,7.5 Z"/></g>
<g><path style="opacity:0.087" fill="#deeaef" d="M 73.5,6.5 C 73.5,15.1667 73.5,23.8333 73.5,32.5C 64.4719,32.3195 55.4719,32.6529 46.5,33.5C 47.2625,32.7321 48.2625,32.2321 49.5,32C 57.1594,31.5003 64.8261,31.3336 72.5,31.5C 72.1739,22.9832 72.5073,14.6499 73.5,6.5 Z"/></g>
<g><path style="opacity:0.683" fill="#cae3ec" d="M 94.5,7.5 C 94.8333,7.5 95.1667,7.5 95.5,7.5C 95.5937,15.4839 95.5937,23.3172 95.5,31C 100.019,31.1753 104.353,31.6753 108.5,32.5C 108.825,39.6866 108.491,46.6866 107.5,53.5C 107.5,46.5 107.5,39.5 107.5,32.5C 103.167,32.5 98.8333,32.5 94.5,32.5C 94.5,24.1667 94.5,15.8333 94.5,7.5 Z"/></g>
<g><path style="opacity:0.929" fill="#7fc0da" d="M 46.5,33.5 C 45.3398,34.265 44.3398,35.265 43.5,36.5C 44.3094,38.0709 44.6427,39.7376 44.5,41.5C 43.0762,39.4855 42.4095,37.1522 42.5,34.5C 43.5676,33.5655 44.901,33.2322 46.5,33.5 Z"/></g>
<g><path style="opacity:0.965" fill="#fefefe" d="M 43.5,47.5 C 43.595,49.7857 44.2616,51.7857 45.5,53.5C 40.6353,56.8966 36.1353,60.8966 32,65.5C 29.7137,69.7369 27.7137,74.0702 26,78.5C 25.1717,83.202 25.3384,87.8687 26.5,92.5C 27.1674,89.3583 27.834,86.3583 28.5,83.5C 29.0508,86.8067 29.3841,90.1401 29.5,93.5C 28.4138,93.62 27.7472,94.2867 27.5,95.5C 28.993,101.832 32.3263,106.998 37.5,111C 38.7589,111.982 40.0922,112.315 41.5,112C 39.9371,111.241 38.9371,110.074 38.5,108.5C 42.345,110.923 46.345,113.09 50.5,115C 57.8258,115.5 65.1591,115.666 72.5,115.5C 72.5,122.833 72.5,130.167 72.5,137.5C 72.1667,137.5 71.8333,137.5 71.5,137.5C 71.3893,138.117 71.056,138.617 70.5,139C 62.4515,139.77 54.4515,139.603 46.5,138.5C 46.5,137.5 46.5,136.5 46.5,135.5C 26.0667,131.236 13.2334,118.903 8,98.5C 6.84098,97.434 6.00764,97.7673 5.5,99.5C 4.59603,98.791 4.26269,97.791 4.5,96.5C 6.30368,89.5683 7.13702,82.2349 7,74.5C 8.89548,72.3493 9.39548,70.0159 8.5,67.5C 7.85027,69.1836 6.85027,70.5169 5.5,71.5C 6.12904,68.6027 7.12904,65.936 8.5,63.5C 8.28099,64.675 8.61432,65.675 9.5,66.5C 14.1822,55.6301 21.5155,47.1301 31.5,41C 34.022,39.6591 36.6887,38.8257 39.5,38.5C 40.0592,41.9433 41.3926,44.9433 43.5,47.5 Z M 59.5,121.5 C 62.4475,121.223 65.2809,121.556 68,122.5C 68.5787,126.203 68.412,129.869 67.5,133.5C 63.413,133.706 59.913,132.373 57,129.5C 55.8366,126.029 56.6699,123.362 59.5,121.5 Z"/></g>
<g><path style="opacity:0.411" fill="#f5f5f5" d="M 107.5,54.5 C 107.5,54.1667 107.5,53.8333 107.5,53.5C 108.491,46.6866 108.825,39.6866 108.5,32.5C 108.833,32.5 109.167,32.5 109.5,32.5C 125.478,32.663 138.145,39.4963 147.5,53C 147.355,53.772 147.022,54.4387 146.5,55C 133.441,57.1625 120.441,56.9958 107.5,54.5 Z M 113.5,36.5 C 124.883,36.6907 133.883,41.3573 140.5,50.5C 139.975,51.1924 139.308,51.6924 138.5,52C 130.167,52.6667 121.833,52.6667 113.5,52C 112.239,46.8649 112.239,41.6982 113.5,36.5 Z"/></g>
<g><path style="opacity:0.928" fill="#ddddde" d="M 109.5,32.5 C 111.527,32.3379 113.527,32.5045 115.5,33C 114.207,33.49 112.873,33.6567 111.5,33.5C 111.83,40.1998 111.497,46.8665 110.5,53.5C 109.503,46.5316 109.17,39.5316 109.5,32.5 Z"/></g>
<g><path style="opacity:0.02" fill="#daebf2" d="M 95.5,53.5 C 99.5,53.5 103.5,53.5 107.5,53.5C 107.5,53.8333 107.5,54.1667 107.5,54.5C 103.702,55.4834 99.7016,55.8168 95.5,55.5C 95.5,55.1667 95.5,54.8333 95.5,54.5C 95.5,54.1667 95.5,53.8333 95.5,53.5 Z"/></g>
<g><path style="opacity:0.731" fill="#efefef" d="M 42.5,34.5 C 42.4095,37.1522 43.0762,39.4855 44.5,41.5C 44.3573,43.2624 44.6906,44.9291 45.5,46.5C 45.0431,47.2975 44.3764,47.6309 43.5,47.5C 41.3926,44.9433 40.0592,41.9433 39.5,38.5C 36.6887,38.8257 34.022,39.6591 31.5,41C 21.5155,47.1301 14.1822,55.6301 9.5,66.5C 8.61432,65.675 8.28099,64.675 8.5,63.5C 13.2834,52.4577 20.95,43.9577 31.5,38C 34.9938,36.1994 38.6605,35.0327 42.5,34.5 Z"/></g>
<g><path style="opacity:0.056" fill="#eff6fc" d="M 443.5,62.5 C 449.319,61.3475 455.319,61.1808 461.5,62C 463.32,62.2004 464.653,63.0337 465.5,64.5C 463.784,64.3713 462.117,64.038 460.5,63.5C 455.025,62.5111 449.358,62.1778 443.5,62.5 Z"/></g>
<g><path style="opacity:0.46" fill="#cee5f6" d="M 443.5,62.5 C 449.358,62.1778 455.025,62.5111 460.5,63.5C 453.11,63.2363 445.777,63.5696 438.5,64.5C 439.635,62.7868 441.302,62.1201 443.5,62.5 Z"/></g>
<g><path style="opacity:1" fill="#75b9e6" d="M 427.5,72.5 C 427.992,74.8185 428.992,76.8185 430.5,78.5C 431.689,94.4567 424.522,103.79 409,106.5C 403.88,105.517 399.047,103.85 394.5,101.5C 391.684,97.9142 389.517,93.9142 388,89.5C 387.322,71.179 396.155,62.679 414.5,64C 419.546,65.849 423.879,68.6823 427.5,72.5 Z M 414.5,74.5 C 414.973,75.9063 415.973,76.573 417.5,76.5C 422.619,91.2079 417.619,97.0413 402.5,94C 395.455,85.775 396.789,79.1084 406.5,74C 409.192,73.5702 411.859,73.7369 414.5,74.5 Z"/></g>
<g><path style="opacity:1" fill="#76b9e7" d="M 460.5,63.5 C 462.117,64.038 463.784,64.3713 465.5,64.5C 466.833,66.5 468.5,68.1667 470.5,69.5C 470.357,71.2624 470.691,72.9291 471.5,74.5C 467.435,76.1435 463.769,75.6435 460.5,73C 454.5,72.3333 448.5,72.3333 442.5,73C 441.193,74.9435 441.193,76.7768 442.5,78.5C 442.611,79.1174 442.944,79.6174 443.5,80C 449.833,80.3333 456.167,80.6667 462.5,81C 464.078,82.0945 465.745,82.9278 467.5,83.5C 469.152,88.3409 469.818,93.3409 469.5,98.5C 467.804,102.376 464.804,104.876 460.5,106C 453.139,106.683 445.805,106.517 438.5,105.5C 436.015,103.348 434.349,100.681 433.5,97.5C 433.5,96.5 433.5,95.5 433.5,94.5C 437.267,93.9262 440.267,95.0929 442.5,98C 448.349,98.8184 454.015,98.6517 459.5,97.5C 461.976,94.9427 461.976,92.6094 459.5,90.5C 452.183,90.0126 444.85,89.0126 437.5,87.5C 430.669,79.4964 431.003,71.8297 438.5,64.5C 445.777,63.5696 453.11,63.2363 460.5,63.5 Z"/></g>
<g><path style="opacity:0.039" fill="#e4f1fa" d="M 465.5,64.5 C 468.167,65.1667 469.833,66.8333 470.5,69.5C 468.5,68.1667 466.833,66.5 465.5,64.5 Z"/></g>
<g><path style="opacity:0.639" fill="#edeeee" d="M 45.5,53.5 C 46.1667,54.5 46.8333,55.5 47.5,56.5C 40.5733,60.2585 35.0733,65.5918 31,72.5C 29.6905,76.0704 28.8572,79.737 28.5,83.5C 27.834,86.3583 27.1674,89.3583 26.5,92.5C 25.3384,87.8687 25.1717,83.202 26,78.5C 27.7137,74.0702 29.7137,69.7369 32,65.5C 36.1353,60.8966 40.6353,56.8966 45.5,53.5 Z"/></g>
<g><path style="opacity:0.22" fill="#dfeef9" d="M 427.5,72.5 C 423.879,68.6823 419.546,65.849 414.5,64C 396.155,62.679 387.322,71.179 388,89.5C 389.517,93.9142 391.684,97.9142 394.5,101.5C 388.935,97.3639 386.268,91.6972 386.5,84.5C 387.759,70.574 395.426,62.9074 409.5,61.5C 417.527,62.1659 423.527,65.8326 427.5,72.5 Z"/></g>
<g><path style="opacity:0.255" fill="#ddedf8" d="M 168.5,72.5 C 164.342,72.3316 160.342,72.9983 156.5,74.5C 157.347,73.0337 158.68,72.2004 160.5,72C 163.367,71.1993 166.034,71.3659 168.5,72.5 Z"/></g>
<g><path style="opacity:0.255" fill="#d4e9f7" d="M 246.5,79.5 C 246.5,77.1667 246.5,74.8333 246.5,72.5C 237.983,72.1739 229.65,72.5073 221.5,73.5C 221.5,75.1667 221.5,76.8333 221.5,78.5C 227.206,78.1712 232.872,78.5046 238.5,79.5C 238.145,80.5223 237.478,81.189 236.5,81.5C 231.604,79.5539 226.271,78.8872 220.5,79.5C 220.5,76.8333 220.5,74.1667 220.5,71.5C 229.5,71.5 238.5,71.5 247.5,71.5C 247.806,74.3854 247.473,77.0521 246.5,79.5 Z"/></g>
<g><path style="opacity:0.175" fill="#e2f1f9" d="M 324.5,79.5 C 324.5,77.1667 324.5,74.8333 324.5,72.5C 315.5,72.5 306.5,72.5 297.5,72.5C 297.5,74.8333 297.5,77.1667 297.5,79.5C 296.527,77.0521 296.194,74.3854 296.5,71.5C 306.167,71.5 315.833,71.5 325.5,71.5C 325.806,74.3854 325.473,77.0521 324.5,79.5 Z"/></g>
<g><path style="opacity:0.231" fill="#dfeef9" d="M 362.5,74.5 C 361.788,73.2613 360.788,72.7613 359.5,73C 358.373,74.7533 357.373,76.5866 356.5,78.5C 359.038,82.2432 361.038,86.2432 362.5,90.5C 359.673,86.8537 357.339,82.8537 355.5,78.5C 355.885,73.973 358.218,71.6397 362.5,71.5C 362.5,72.5 362.5,73.5 362.5,74.5 Z"/></g>
<g><path style="opacity:0.759" fill="#badbf2" d="M 206.5,73.5 C 202.5,73.5 198.5,73.5 194.5,73.5C 198.5,70.8333 202.5,70.8333 206.5,73.5 Z"/></g>
<g><path style="opacity:0.883" fill="#89c3ea" d="M 221.5,73.5 C 229.65,72.5073 237.983,72.1739 246.5,72.5C 246.5,74.8333 246.5,77.1667 246.5,79.5C 246.167,79.5 245.833,79.5 245.5,79.5C 245.5,77.5 245.5,75.5 245.5,73.5C 237.5,73.5 229.5,73.5 221.5,73.5 Z"/></g>
<g><path style="opacity:0.831" fill="#c7e1f4" d="M 276.5,74.5 C 274.833,73.1667 273.167,73.1667 271.5,74.5C 271.418,72.7483 272.251,71.7483 274,71.5C 275.749,71.7483 276.582,72.7483 276.5,74.5 Z"/></g>
<g><path style="opacity:0.839" fill="#a2cfee" d="M 324.5,79.5 C 315.517,80.4572 306.517,80.4572 297.5,79.5C 297.5,77.1667 297.5,74.8333 297.5,72.5C 306.5,72.5 315.5,72.5 324.5,72.5C 324.5,74.8333 324.5,77.1667 324.5,79.5 Z"/></g>
<g><path style="opacity:0.299" fill="#d8ebf7" d="M 470.5,69.5 C 472.574,71.7152 472.907,74.2152 471.5,77C 466.785,78.3787 462.785,77.3787 459.5,74C 454.083,73.2185 448.75,73.3852 443.5,74.5C 442.566,75.5676 442.232,76.901 442.5,78.5C 441.193,76.7768 441.193,74.9435 442.5,73C 448.5,72.3333 454.5,72.3333 460.5,73C 463.769,75.6435 467.435,76.1435 471.5,74.5C 470.691,72.9291 470.357,71.2624 470.5,69.5 Z"/></g>
<g><path style="opacity:1" fill="#7cbce8" d="M 168.5,72.5 C 171.614,72.5548 173.948,73.8881 175.5,76.5C 175.738,78.4044 176.738,79.7377 178.5,80.5C 178.5,81.8333 178.5,83.1667 178.5,84.5C 176.5,84.5 174.5,84.5 172.5,84.5C 171.958,81.0812 169.958,79.4145 166.5,79.5C 165.903,78.8614 165.07,78.528 164,78.5C 162.301,78.3866 161.134,79.0532 160.5,80.5C 158.5,80.5 157.5,81.5 157.5,83.5C 157.5,86.1667 157.5,88.8333 157.5,91.5C 159.21,96.183 162.543,97.683 167.5,96C 168.942,95.6232 169.942,94.7899 170.5,93.5C 171.906,93.0269 172.573,92.0269 172.5,90.5C 174.5,90.5 176.5,90.5 178.5,90.5C 178.5,91.8333 178.5,93.1667 178.5,94.5C 178.672,95.4916 178.338,96.1583 177.5,96.5C 175.833,97.5 174.5,98.8333 173.5,100.5C 172.486,101.674 171.153,102.34 169.5,102.5C 165.466,102.495 161.466,102.162 157.5,101.5C 156.415,99.4131 154.749,98.0798 152.5,97.5C 152.008,95.1815 151.008,93.1815 149.5,91.5C 149.552,87.8019 149.886,84.1352 150.5,80.5C 152.833,78.8333 154.833,76.8333 156.5,74.5C 160.342,72.9983 164.342,72.3316 168.5,72.5 Z"/></g>
<g><path style="opacity:1" fill="#78bae7" d="M 194.5,73.5 C 198.5,73.5 202.5,73.5 206.5,73.5C 207.492,73.3284 208.158,73.6618 208.5,74.5C 208.973,75.9063 209.973,76.573 211.5,76.5C 211.738,78.4044 212.738,79.7377 214.5,80.5C 215.741,85.1767 215.741,89.8433 214.5,94.5C 214.573,96.0269 213.906,97.0269 212.5,97.5C 211.5,97.8333 210.833,98.5 210.5,99.5C 209.341,101.25 207.674,102.25 205.5,102.5C 201.466,102.495 197.466,102.162 193.5,101.5C 186.844,95.5217 184.844,88.1883 187.5,79.5C 189.5,78.1667 191.167,76.5 192.5,74.5C 192.842,73.6618 193.508,73.3284 194.5,73.5 Z M 202.5,79.5 C 202.842,80.3382 203.508,80.6716 204.5,80.5C 205.5,82.1667 206.833,83.5 208.5,84.5C 208.599,87.2372 208.265,89.9039 207.5,92.5C 206.128,93.5116 204.795,94.5116 203.5,95.5C 199.468,95.8144 196.135,94.4811 193.5,91.5C 192.167,88.8333 192.167,86.1667 193.5,83.5C 194.5,83.1667 195.167,82.5 195.5,81.5C 196.167,81.5 196.5,81.1667 196.5,80.5C 198.5,80.1667 200.5,79.8333 202.5,79.5 Z"/></g>
<g><path style="opacity:1" fill="#75b9e7" d="M 221.5,73.5 C 229.5,73.5 237.5,73.5 245.5,73.5C 245.5,75.5 245.5,77.5 245.5,79.5C 245.167,80.8333 244.833,82.1667 244.5,83.5C 241.808,84.5905 241.142,86.2572 242.5,88.5C 242.427,90.0269 243.094,91.0269 244.5,91.5C 245.674,92.5137 246.34,93.847 246.5,95.5C 246.427,97.0269 247.094,98.0269 248.5,98.5C 248.539,99.5832 248.873,100.583 249.5,101.5C 246.844,102.614 244.177,102.614 241.5,101.5C 240.662,101.158 240.328,100.492 240.5,99.5C 240.25,97.326 239.25,95.6594 237.5,94.5C 236.662,94.1583 236.328,93.4916 236.5,92.5C 236.586,91.5041 236.252,90.6708 235.5,90C 232.854,89.5026 230.187,89.3359 227.5,89.5C 227.5,93.8333 227.5,98.1667 227.5,102.5C 225.5,102.5 223.5,102.5 221.5,102.5C 221.5,96.1667 221.5,89.8333 221.5,83.5C 225.846,83.6657 230.179,83.499 234.5,83C 235.416,82.7216 236.082,82.2216 236.5,81.5C 237.478,81.189 238.145,80.5223 238.5,79.5C 232.872,78.5046 227.206,78.1712 221.5,78.5C 221.5,76.8333 221.5,75.1667 221.5,73.5 Z"/></g>
<g><path style="opacity:0.999" fill="#7abbe7" d="M 276.5,74.5 C 277.338,74.8417 277.672,75.5084 277.5,76.5C 277.427,78.0269 278.094,79.0269 279.5,79.5C 279.157,81.4832 279.824,82.8166 281.5,83.5C 281.157,85.4832 281.824,86.8166 283.5,87.5C 283.75,89.674 284.75,91.3406 286.5,92.5C 286.157,94.4832 286.824,95.8166 288.5,96.5C 289.338,96.8417 289.672,97.5084 289.5,98.5C 289.539,99.5832 289.873,100.583 290.5,101.5C 288.235,102.647 285.902,102.814 283.5,102C 282.512,99.833 281.179,97.9997 279.5,96.5C 278.921,93.6689 277.588,91.3356 275.5,89.5C 274.662,89.1583 274.328,88.4916 274.5,87.5C 273.921,84.6689 272.588,82.3356 270.5,80.5C 269.206,78.32 269.539,76.32 271.5,74.5C 273.167,73.1667 274.833,73.1667 276.5,74.5 Z"/></g>
<g><path style="opacity:1" fill="#6fb6e6" d="M 298.5,73.5 C 306.833,73.5 315.167,73.5 323.5,73.5C 323.5,75.1667 323.5,76.8333 323.5,78.5C 315.167,78.5 306.833,78.5 298.5,78.5C 298.5,76.8333 298.5,75.1667 298.5,73.5 Z"/></g>
<g><path style="opacity:0.233" fill="#ddedf9" d="M 337.5,72.5 C 337.167,72.5 336.833,72.5 336.5,72.5C 334.5,72.5 332.5,72.5 330.5,72.5C 330.5,82.5 330.5,92.5 330.5,102.5C 330.5,102.833 330.5,103.167 330.5,103.5C 329.506,93.0131 329.172,82.3464 329.5,71.5C 332.385,71.1936 335.052,71.5269 337.5,72.5 Z"/></g>
<g><path style="opacity:0.954" fill="#7ebee9" d="M 336.5,72.5 C 336.5,82.5 336.5,92.5 336.5,102.5C 334.5,102.5 332.5,102.5 330.5,102.5C 330.5,92.5 330.5,82.5 330.5,72.5C 332.5,72.5 334.5,72.5 336.5,72.5 Z"/></g>
<g><path style="opacity:1" fill="#6eb6e6" d="M 331.5,73.5 C 332.833,73.5 334.167,73.5 335.5,73.5C 335.5,82.8333 335.5,92.1667 335.5,101.5C 334.167,101.5 332.833,101.5 331.5,101.5C 331.5,92.1667 331.5,82.8333 331.5,73.5 Z"/></g>
<g><path style="opacity:0.389" fill="#c7e2f5" d="M 336.5,72.5 C 336.833,72.5 337.167,72.5 337.5,72.5C 337.5,82.8333 337.5,93.1667 337.5,103.5C 335.167,103.5 332.833,103.5 330.5,103.5C 330.5,103.167 330.5,102.833 330.5,102.5C 332.5,102.5 334.5,102.5 336.5,102.5C 336.5,92.5 336.5,82.5 336.5,72.5 Z"/></g>
<g><path style="opacity:1" fill="#79bbe7" d="M 362.5,74.5 C 362.427,76.0269 363.094,77.0269 364.5,77.5C 364.157,79.4832 364.824,80.8166 366.5,81.5C 367.338,81.8417 367.672,82.5084 367.5,83.5C 367.427,85.0269 368.094,86.0269 369.5,86.5C 369.157,88.4832 369.824,89.8166 371.5,90.5C 372.079,93.3311 373.412,95.6644 375.5,97.5C 376.338,97.8417 376.672,98.5084 376.5,99.5C 376.414,100.496 376.748,101.329 377.5,102C 374.408,102.736 371.408,102.569 368.5,101.5C 367.921,98.6689 366.588,96.3356 364.5,94.5C 363.326,93.4863 362.66,92.153 362.5,90.5C 361.038,86.2432 359.038,82.2432 356.5,78.5C 357.373,76.5866 358.373,74.7533 359.5,73C 360.788,72.7613 361.788,73.2613 362.5,74.5 Z"/></g>
<g><path style="opacity:0.055" fill="#dcecf8" d="M 208.5,74.5 C 210.027,74.427 211.027,75.0937 211.5,76.5C 209.973,76.573 208.973,75.9063 208.5,74.5 Z"/></g>
<g><path style="opacity:0.133" fill="#e7f2fa" d="M 427.5,72.5 C 429.975,73.6874 430.975,75.6874 430.5,78.5C 428.992,76.8185 427.992,74.8185 427.5,72.5 Z"/></g>
<g><path style="opacity:0.549" fill="#cfe6f6" d="M 156.5,74.5 C 154.833,76.8333 152.833,78.8333 150.5,80.5C 151.5,77.5 153.5,75.5 156.5,74.5 Z"/></g>
<g><path style="opacity:0.376" fill="#dbedf8" d="M 192.5,74.5 C 191.167,76.5 189.5,78.1667 187.5,79.5C 188.167,76.8333 189.833,75.1667 192.5,74.5 Z"/></g>
<g><path style="opacity:0.18" fill="#e5f1fa" d="M 414.5,74.5 C 416.027,74.427 417.027,75.0937 417.5,76.5C 415.973,76.573 414.973,75.9063 414.5,74.5 Z"/></g>
<g><path style="opacity:0.157" fill="#dfeef9" d="M 362.5,74.5 C 363.906,74.9731 364.573,75.9731 364.5,77.5C 363.094,77.0269 362.427,76.0269 362.5,74.5 Z"/></g>
<g><path style="opacity:0.718" fill="#c4e0f4" d="M 175.5,76.5 C 177.262,77.2623 178.262,78.5956 178.5,80.5C 176.738,79.7377 175.738,78.4044 175.5,76.5 Z"/></g>
<g><path style="opacity:0.588" fill="#d1e7f6" d="M 211.5,76.5 C 213.262,77.2623 214.262,78.5956 214.5,80.5C 212.738,79.7377 211.738,78.4044 211.5,76.5 Z"/></g>
<g><path style="opacity:0.478" fill="#bfdef3" d="M 166.5,79.5 C 164.5,79.8333 162.5,80.1667 160.5,80.5C 161.134,79.0532 162.301,78.3866 164,78.5C 165.07,78.528 165.903,78.8614 166.5,79.5 Z"/></g>
<g><path style="opacity:0.553" fill="#b8daf2" d="M 202.5,79.5 C 200.5,79.8333 198.5,80.1667 196.5,80.5C 197.134,79.0532 198.301,78.3866 200,78.5C 201.07,78.528 201.903,78.8614 202.5,79.5 Z"/></g>
<g><path style="opacity:0.114" fill="#e8f3fa" d="M 277.5,76.5 C 278.906,76.9731 279.573,77.9731 279.5,79.5C 278.094,79.0269 277.427,78.0269 277.5,76.5 Z"/></g>
<g><path style="opacity:0.031" fill="#e5f1fa" d="M 443.5,74.5 C 443.5,75.8333 443.5,77.1667 443.5,78.5C 449.509,78.3338 455.509,78.5005 461.5,79C 464.229,79.5661 466.229,81.0661 467.5,83.5C 465.745,82.9278 464.078,82.0945 462.5,81C 456.167,80.6667 449.833,80.3333 443.5,80C 442.944,79.6174 442.611,79.1174 442.5,78.5C 442.232,76.901 442.566,75.5676 443.5,74.5 Z"/></g>
<g><path style="opacity:0.373" fill="#cee6f6" d="M 166.5,79.5 C 169.958,79.4145 171.958,81.0812 172.5,84.5C 170.475,82.8036 168.475,81.137 166.5,79.5 Z"/></g>
<g><path style="opacity:0.424" fill="#d8ebf8" d="M 204.5,80.5 C 206.833,80.8333 208.167,82.1667 208.5,84.5C 206.833,83.5 205.5,82.1667 204.5,80.5 Z"/></g>
<g><path style="opacity:0.914" fill="#b8daf2" d="M 364.5,77.5 C 365.674,78.5137 366.34,79.847 366.5,81.5C 364.824,80.8166 364.157,79.4832 364.5,77.5 Z"/></g>
<g><path style="opacity:0.388" fill="#e7e8e8" d="M 4.5,96.5 C 4.22711,88.1122 4.56044,79.7788 5.5,71.5C 6.85027,70.5169 7.85027,69.1836 8.5,67.5C 9.39548,70.0159 8.89548,72.3493 7,74.5C 7.13702,82.2349 6.30368,89.5683 4.5,96.5 Z"/></g>
<g><path style="opacity:0.833" fill="#72c5e4" d="M 52.5,54.5 C 59.6476,53.5084 66.9809,53.175 74.5,53.5C 74.5,81.5 74.5,109.5 74.5,137.5C 73.5021,110.005 73.1687,82.3384 73.5,54.5C 66.5,54.5 59.5,54.5 52.5,54.5 Z"/></g>
<g><path style="opacity:0.014" fill="#ddedf8" d="M 414.5,74.5 C 411.859,73.7369 409.192,73.5702 406.5,74C 396.789,79.1084 395.455,85.775 402.5,94C 417.619,97.0413 422.619,91.2079 417.5,76.5C 420.518,78.3742 421.851,81.2076 421.5,85C 419.35,95.582 413.017,99.2487 402.5,96C 396.651,91.4203 394.984,85.5869 397.5,78.5C 400.015,73.9924 403.848,71.9924 409,72.5C 411.295,72.5465 413.129,73.2132 414.5,74.5 Z"/></g>
<g><path style="opacity:0.11" fill="#d9ebf8" d="M 160.5,80.5 C 159.833,81.8333 158.833,82.8333 157.5,83.5C 157.5,81.5 158.5,80.5 160.5,80.5 Z"/></g>
<g><path style="opacity:0.137" fill="#d9ebf8" d="M 195.5,81.5 C 195.167,82.5 194.5,83.1667 193.5,83.5C 193.5,82.1667 194.167,81.5 195.5,81.5 Z"/></g>
<g><path style="opacity:0.141" fill="#ddedf9" d="M 245.5,79.5 C 245.833,79.5 246.167,79.5 246.5,79.5C 246.771,81.3797 246.104,82.713 244.5,83.5C 244.833,82.1667 245.167,80.8333 245.5,79.5 Z"/></g>
<g><path style="opacity:0.875" fill="#c1def3" d="M 279.5,79.5 C 280.674,80.5137 281.34,81.847 281.5,83.5C 279.824,82.8166 279.157,81.4832 279.5,79.5 Z"/></g>
<g><path style="opacity:0.533" fill="#cae3f5" d="M 269.5,85.5 C 268.85,85.1961 268.183,84.8627 267.5,84.5C 266.859,85.9935 265.859,86.9935 264.5,87.5C 264.738,85.3551 265.738,83.6885 267.5,82.5C 268.919,83.0047 269.585,84.0047 269.5,85.5 Z"/></g>
<g><path style="opacity:0.125" fill="#eff6fb" d="M 352.5,83.5 C 355.33,81.9652 356.663,82.9652 356.5,86.5C 356.167,86.5 355.833,86.5 355.5,86.5C 355.144,84.8102 354.144,83.8102 352.5,83.5 Z"/></g>
<g><path style="opacity:0.397" fill="#c8e3f5" d="M 178.5,80.5 C 179.339,81.6412 180.006,82.9745 180.5,84.5C 177.691,85.8003 175.024,85.8003 172.5,84.5C 174.5,84.5 176.5,84.5 178.5,84.5C 178.5,83.1667 178.5,81.8333 178.5,80.5 Z"/></g>
<g><path style="opacity:0.027" fill="#e4f1fa" d="M 244.5,83.5 C 243.833,85.1667 243.167,86.8333 242.5,88.5C 241.142,86.2572 241.808,84.5905 244.5,83.5 Z"/></g>
<g><path style="opacity:0.558" fill="#d4e8f7" d="M 307.5,83.5 C 309.607,82.5318 311.941,82.1984 314.5,82.5C 315.498,89.1384 315.665,95.805 315,102.5C 312.281,103.444 309.448,103.777 306.5,103.5C 306.176,96.6457 306.509,89.979 307.5,83.5 Z"/></g>
<g><path style="opacity:1" fill="#72b7e6" d="M 307.5,83.5 C 309.5,83.5 311.5,83.5 313.5,83.5C 313.5,89.8333 313.5,96.1667 313.5,102.5C 311.5,102.5 309.5,102.5 307.5,102.5C 307.5,96.1667 307.5,89.8333 307.5,83.5 Z"/></g>
<g><path style="opacity:0.2" fill="#dfeef9" d="M 367.5,83.5 C 368.906,83.9731 369.573,84.9731 369.5,86.5C 368.094,86.0269 367.427,85.0269 367.5,83.5 Z"/></g>
<g><path style="opacity:0.257" fill="#dfeef9" d="M 150.5,80.5 C 149.886,84.1352 149.552,87.8019 149.5,91.5C 148.098,87.7104 148.431,84.0437 150.5,80.5 Z"/></g>
<g><path style="opacity:0.529" fill="#bcddf3" d="M 193.5,83.5 C 192.167,86.1667 192.167,88.8333 193.5,91.5C 192.007,90.6879 191.34,89.3545 191.5,87.5C 191.34,85.6455 192.007,84.3121 193.5,83.5 Z"/></g>
<g><path style="opacity:0.318" fill="#d5e9f7" d="M 214.5,80.5 C 215.926,82.6789 216.592,85.1789 216.5,88C 216.664,90.5437 215.997,92.7103 214.5,94.5C 215.741,89.8433 215.741,85.1767 214.5,80.5 Z"/></g>
<g><path style="opacity:1" fill="#76b9e7" d="M 269.5,85.5 C 269.433,87.4008 269.767,89.2341 270.5,91C 269.68,92.8003 269.014,94.6336 268.5,96.5C 268.672,97.4916 268.338,98.1583 267.5,98.5C 265.896,99.287 265.229,100.62 265.5,102.5C 262.753,102.813 260.086,102.48 257.5,101.5C 258.127,100.583 258.461,99.5832 258.5,98.5C 261.751,95.6755 263.751,92.0089 264.5,87.5C 265.859,86.9935 266.859,85.9935 267.5,84.5C 268.183,84.8627 268.85,85.1961 269.5,85.5 Z"/></g>
<g><path style="opacity:0.114" fill="#e0eff9" d="M 270.5,80.5 C 272.588,82.3356 273.921,84.6689 274.5,87.5C 272.412,85.6644 271.079,83.3311 270.5,80.5 Z"/></g>
<g><path style="opacity:0.918" fill="#b5d8f1" d="M 281.5,83.5 C 282.674,84.5137 283.34,85.847 283.5,87.5C 281.824,86.8166 281.157,85.4832 281.5,83.5 Z"/></g>
<g><path style="opacity:0.999" fill="#77bae7" d="M 352.5,83.5 C 354.144,83.8102 355.144,84.8102 355.5,86.5C 356.219,88.7638 356.552,91.0971 356.5,93.5C 356.672,94.4916 356.338,95.1583 355.5,95.5C 353.412,97.3356 352.079,99.6689 351.5,102.5C 348.302,103.036 345.635,102.369 343.5,100.5C 345.588,98.6644 346.921,96.3311 347.5,93.5C 348.376,93.6309 349.043,93.2975 349.5,92.5C 351.051,89.641 352.051,86.641 352.5,83.5 Z"/></g>
<g><path style="opacity:0.133" fill="#e0eff9" d="M 283.5,87.5 C 285.25,88.6594 286.25,90.326 286.5,92.5C 284.75,91.3406 283.75,89.674 283.5,87.5 Z"/></g>
<g><path style="opacity:0.886" fill="#badbf2" d="M 369.5,86.5 C 370.674,87.5137 371.34,88.847 371.5,90.5C 369.824,89.8166 369.157,88.4832 369.5,86.5 Z"/></g>
<g><path style="opacity:0.277" fill="#dcedf8" d="M 437.5,87.5 C 444.85,89.0126 452.183,90.0126 459.5,90.5C 453.158,90.6662 446.825,90.4995 440.5,90C 439.058,89.6232 438.058,88.7899 437.5,87.5 Z"/></g>
<g><path style="opacity:0.149" fill="#e4f0fa" d="M 242.5,88.5 C 243.906,88.9731 244.573,89.9731 244.5,91.5C 243.094,91.0269 242.427,90.0269 242.5,88.5 Z"/></g>
<g><path style="opacity:0.576" fill="#c8e2f5" d="M 269.5,85.5 C 273.405,89.4212 273.072,93.0879 268.5,96.5C 269.014,94.6336 269.68,92.8003 270.5,91C 269.767,89.2341 269.433,87.4008 269.5,85.5 Z"/></g>
<g><path style="opacity:0.784" fill="#c1def3" d="M 355.5,86.5 C 355.833,86.5 356.167,86.5 356.5,86.5C 359.053,88.9621 359.053,91.2955 356.5,93.5C 356.552,91.0971 356.219,88.7638 355.5,86.5 Z"/></g>
<g><path style="opacity:0.631" fill="#d7eaf8" d="M 172.5,90.5 C 174.628,89.3709 176.961,89.2042 179.5,90C 180.553,91.7493 180.22,93.2493 178.5,94.5C 178.5,93.1667 178.5,91.8333 178.5,90.5C 176.5,90.5 174.5,90.5 172.5,90.5 Z"/></g>
<g><path style="opacity:0.922" fill="#b3d7f1" d="M 208.5,84.5 C 209.156,85.6216 209.489,86.9549 209.5,88.5C 209.415,90.3328 208.748,91.6661 207.5,92.5C 208.265,89.9039 208.599,87.2372 208.5,84.5 Z"/></g>
<g><path style="opacity:0.365" fill="#d2e8f7" d="M 236.5,81.5 C 236.082,82.2216 235.416,82.7216 234.5,83C 230.179,83.499 225.846,83.6657 221.5,83.5C 221.5,89.8333 221.5,96.1667 221.5,102.5C 223.5,102.5 225.5,102.5 227.5,102.5C 227.5,98.1667 227.5,93.8333 227.5,89.5C 230.187,89.3359 232.854,89.5026 235.5,90C 236.252,90.6708 236.586,91.5041 236.5,92.5C 234.243,90.4159 231.743,90.0825 229,91.5C 228.501,95.4862 228.334,99.4862 228.5,103.5C 225.833,103.5 223.167,103.5 220.5,103.5C 220.5,96.5 220.5,89.5 220.5,82.5C 225.88,82.6757 231.213,82.3424 236.5,81.5 Z"/></g>
<g><path style="opacity:0.061" fill="#e8f3fa" d="M 470.5,87.5 C 473.065,91.1986 473.065,94.8653 470.5,98.5C 471.675,94.85 471.675,91.1834 470.5,87.5 Z"/></g>
<g><path style="opacity:0.243" fill="#ddedf8" d="M 172.5,90.5 C 172.573,92.0269 171.906,93.0269 170.5,93.5C 170.427,91.9731 171.094,90.9731 172.5,90.5 Z"/></g>
<g><path style="opacity:0.776" fill="#bfddf3" d="M 187.5,79.5 C 184.844,88.1883 186.844,95.5217 193.5,101.5C 186.979,97.7925 184.146,92.1259 185,84.5C 185.374,82.5087 186.207,80.842 187.5,79.5 Z"/></g>
<g><path style="opacity:0.341" fill="#d9ebf7" d="M 193.5,91.5 C 196.135,94.4811 199.468,95.8144 203.5,95.5C 198.764,97.6802 195.431,96.3468 193.5,91.5 Z"/></g>
<g><path style="opacity:0.91" fill="#b0d6f0" d="M 352.5,83.5 C 352.051,86.641 351.051,89.641 349.5,92.5C 349.043,93.2975 348.376,93.6309 347.5,93.5C 348.675,89.8174 350.341,86.4841 352.5,83.5 Z"/></g>
<g><path style="opacity:0.114" fill="#e2f0f9" d="M 371.5,90.5 C 373.588,92.3356 374.921,94.6689 375.5,97.5C 373.412,95.6644 372.079,93.3311 371.5,90.5 Z"/></g>
<g><path style="opacity:0.973" fill="#9fceee" d="M 467.5,83.5 C 469.262,84.2623 470.262,85.5956 470.5,87.5C 471.675,91.1834 471.675,94.85 470.5,98.5C 470.167,98.5 469.833,98.5 469.5,98.5C 469.818,93.3409 469.152,88.3409 467.5,83.5 Z"/></g>
<g><path style="opacity:0.231" fill="#daebf8" d="M 149.5,91.5 C 151.008,93.1815 152.008,95.1815 152.5,97.5C 150.461,96.089 149.461,94.089 149.5,91.5 Z"/></g>
<g><path style="opacity:0.333" fill="#cde5f5" d="M 157.5,91.5 C 161.262,95.857 165.596,96.5237 170.5,93.5C 169.942,94.7899 168.942,95.6232 167.5,96C 162.543,97.683 159.21,96.183 157.5,91.5 Z"/></g>
<g><path style="opacity:0.894" fill="#b2d6f0" d="M 264.5,87.5 C 263.751,92.0089 261.751,95.6755 258.5,98.5C 259.742,94.3447 261.742,90.678 264.5,87.5 Z"/></g>
<g><path style="opacity:0.106" fill="#dfeef9" d="M 275.5,89.5 C 277.588,91.3356 278.921,93.6689 279.5,96.5C 277.412,94.6644 276.079,92.3311 275.5,89.5 Z"/></g>
<g><path style="opacity:0.894" fill="#b7d9f1" d="M 286.5,92.5 C 287.674,93.5137 288.34,94.847 288.5,96.5C 286.824,95.8166 286.157,94.4832 286.5,92.5 Z"/></g>
<g><path style="opacity:0.033" fill="#deeef9" d="M 459.5,90.5 C 461.976,92.6094 461.976,94.9427 459.5,97.5C 454.156,97.666 448.823,97.4994 443.5,97C 442.177,96.1841 441.511,95.0174 441.5,93.5C 442.289,93.7828 442.956,94.2828 443.5,95C 448.833,95.6667 454.167,95.6667 459.5,95C 460.728,93.5098 460.728,92.0098 459.5,90.5 Z"/></g>
<g><path style="opacity:0.256" fill="#c7dbe3" d="M 44.5,41.5 C 46.2659,45.2848 47.7659,49.2848 49,53.5C 50.0113,54.3366 51.1779,54.67 52.5,54.5C 59.5,54.5 66.5,54.5 73.5,54.5C 73.1687,82.3384 73.5021,110.005 74.5,137.5C 80.8333,137.5 87.1667,137.5 93.5,137.5C 94.1667,109.833 94.8333,82.1667 95.5,54.5C 95.5,54.8333 95.5,55.1667 95.5,55.5C 95.6666,83.1687 95.5,110.835 95,138.5C 94.586,138.957 94.086,139.291 93.5,139.5C 86.3703,138.866 79.3703,138.199 72.5,137.5C 72.5,130.167 72.5,122.833 72.5,115.5C 72.5,95.5 72.5,75.5 72.5,55.5C 63.8678,55.3098 55.5344,55.6432 47.5,56.5C 46.8333,55.5 46.1667,54.5 45.5,53.5C 44.2616,51.7857 43.595,49.7857 43.5,47.5C 44.3764,47.6309 45.0431,47.2975 45.5,46.5C 44.6906,44.9291 44.3573,43.2624 44.5,41.5 Z"/></g>
<g><path style="opacity:0.184" fill="#ddedf8" d="M 237.5,94.5 C 239.25,95.6594 240.25,97.326 240.5,99.5C 238.75,98.3406 237.75,96.674 237.5,94.5 Z"/></g>
<g><path style="opacity:0.204" fill="#ddedf8" d="M 364.5,94.5 C 366.588,96.3356 367.921,98.6689 368.5,101.5C 366.412,99.6644 365.079,97.3311 364.5,94.5 Z"/></g>
<g><path style="opacity:0.801" fill="#ededed" d="M 29.5,93.5 C 31.2292,99.2966 34.2292,104.297 38.5,108.5C 38.9371,110.074 39.9371,111.241 41.5,112C 40.0922,112.315 38.7589,111.982 37.5,111C 32.3263,106.998 28.993,101.832 27.5,95.5C 27.7472,94.2867 28.4138,93.62 29.5,93.5 Z"/></g>
<g><path style="opacity:0.737" fill="#c7e2f4" d="M 152.5,97.5 C 154.749,98.0798 156.415,99.4131 157.5,101.5C 155.251,100.92 153.585,99.5869 152.5,97.5 Z"/></g>
<g><path style="opacity:0.322" fill="#d1e7f6" d="M 246.5,95.5 C 247.906,95.9731 248.573,96.9731 248.5,98.5C 247.094,98.0269 246.427,97.0269 246.5,95.5 Z"/></g>
<g><path style="opacity:0.192" fill="#d9ebf8" d="M 347.5,93.5 C 346.921,96.3311 345.588,98.6644 343.5,100.5C 344.079,97.6689 345.412,95.3356 347.5,93.5 Z"/></g>
<g><path style="opacity:0.914" fill="#90c6eb" d="M 441.5,93.5 C 441.511,95.0174 442.177,96.1841 443.5,97C 448.823,97.4994 454.156,97.666 459.5,97.5C 454.015,98.6517 448.349,98.8184 442.5,98C 440.267,95.0929 437.267,93.9262 433.5,94.5C 433.5,95.5 433.5,96.5 433.5,97.5C 432.566,96.4324 432.232,95.099 432.5,93.5C 435.5,93.5 438.5,93.5 441.5,93.5 Z"/></g>
<g><path style="opacity:0.016" fill="#eaf4fb" d="M 177.5,96.5 C 177.167,98.8333 175.833,100.167 173.5,100.5C 174.5,98.8333 175.833,97.5 177.5,96.5 Z"/></g>
<g><path style="opacity:0.004" fill="#e6f2fa" d="M 212.5,97.5 C 212.5,98.8333 211.833,99.5 210.5,99.5C 210.833,98.5 211.5,97.8333 212.5,97.5 Z"/></g>
<g><path style="opacity:0.216" fill="#e5f1fa" d="M 441.5,93.5 C 438.5,93.5 435.5,93.5 432.5,93.5C 432.232,95.099 432.566,96.4324 433.5,97.5C 434.349,100.681 436.015,103.348 438.5,105.5C 433.333,102.841 431,98.5079 431.5,92.5C 435.042,92.1872 438.375,92.5206 441.5,93.5 Z"/></g>
<g><path style="opacity:0.141" fill="#e0eff9" d="M 355.5,95.5 C 354.921,98.3311 353.588,100.664 351.5,102.5C 352.079,99.6689 353.412,97.3356 355.5,95.5 Z"/></g>
<g><path style="opacity:0.224" fill="#d9ebf8" d="M 267.5,98.5 C 267.34,100.153 266.674,101.486 265.5,102.5C 265.229,100.62 265.896,99.287 267.5,98.5 Z"/></g>
<g><path style="opacity:0.376" fill="#d1e7f6" d="M 157.5,101.5 C 161.466,102.162 165.466,102.495 169.5,102.5C 168.207,103.158 166.707,103.492 165,103.5C 162.179,103.592 159.679,102.926 157.5,101.5 Z"/></g>
<g><path style="opacity:0.376" fill="#d1e7f6" d="M 193.5,101.5 C 197.466,102.162 201.466,102.495 205.5,102.5C 204.207,103.158 202.707,103.492 201,103.5C 198.179,103.592 195.679,102.926 193.5,101.5 Z"/></g>
<g><path style="opacity:0.405" fill="#cee6f6" d="M 248.5,98.5 C 252.811,101.75 252.311,103.416 247,103.5C 245.5,103.333 244,103.167 242.5,103C 241.944,102.617 241.611,102.117 241.5,101.5C 244.177,102.614 246.844,102.614 249.5,101.5C 248.873,100.583 248.539,99.5832 248.5,98.5 Z"/></g>
<g><path style="opacity:0.396" fill="#d0e7f6" d="M 258.5,98.5 C 258.461,99.5832 258.127,100.583 257.5,101.5C 260.086,102.48 262.753,102.813 265.5,102.5C 262.313,103.806 258.98,103.806 255.5,102.5C 256.035,100.739 257.035,99.4057 258.5,98.5 Z"/></g>
<g><path style="opacity:0.407" fill="#d2e7f6" d="M 279.5,96.5 C 281.179,97.9997 282.512,99.833 283.5,102C 285.902,102.814 288.235,102.647 290.5,101.5C 289.873,100.583 289.539,99.5832 289.5,98.5C 290.965,99.4057 291.965,100.739 292.5,102.5C 285.543,105.434 281.21,103.434 279.5,96.5 Z"/></g>
<g><path style="opacity:0.399" fill="#cce5f5" d="M 343.5,100.5 C 345.635,102.369 348.302,103.036 351.5,102.5C 348.713,103.477 345.713,103.81 342.5,103.5C 342.263,102.209 342.596,101.209 343.5,100.5 Z"/></g>
<g><path style="opacity:0.395" fill="#d6e9f7" d="M 376.5,99.5 C 378.104,100.287 378.771,101.62 378.5,103.5C 374.671,104.069 371.337,103.402 368.5,101.5C 371.408,102.569 374.408,102.736 377.5,102C 376.748,101.329 376.414,100.496 376.5,99.5 Z"/></g>
<g><path style="opacity:0.955" fill="#3fabd3" d="M 95.5,53.5 C 95.5,53.8333 95.5,54.1667 95.5,54.5C 94.8333,82.1667 94.1667,109.833 93.5,137.5C 92.8417,109.147 93.5084,81.1467 95.5,53.5 Z"/></g>
<g><path style="opacity:0.272" fill="#dcedf8" d="M 438.5,64.5 C 431.003,71.8297 430.669,79.4964 437.5,87.5C 434.909,86.7457 433.076,85.079 432,82.5C 431.065,100.559 421.565,108.726 403.5,107C 399.8,106.157 396.8,104.324 394.5,101.5C 399.047,103.85 403.88,105.517 409,106.5C 424.522,103.79 431.689,94.4567 430.5,78.5C 431.171,75.2423 432.004,71.9089 433,68.5C 434.451,66.5359 436.284,65.2026 438.5,64.5 Z"/></g>
<g><path style="opacity:0.27" fill="#ddedf8" d="M 469.5,98.5 C 469.833,98.5 470.167,98.5 470.5,98.5C 469.452,102.719 466.785,105.553 462.5,107C 455.167,107.667 447.833,107.667 440.5,107C 439.584,106.722 438.918,106.222 438.5,105.5C 445.805,106.517 453.139,106.683 460.5,106C 464.804,104.876 467.804,102.376 469.5,98.5 Z"/></g>
<g><path style="opacity:0.31" fill="#eeeeee" d="M 46.5,138.5 C 31.9779,135.496 20.4779,127.83 12,115.5C 8.98452,110.475 6.81785,105.142 5.5,99.5C 6.00764,97.7673 6.84098,97.434 8,98.5C 13.2334,118.903 26.0667,131.236 46.5,135.5C 46.5,136.5 46.5,137.5 46.5,138.5 Z"/></g>
<g><path style="opacity:0.637" fill="#dcdcdc" d="M 71.5,137.5 C 69.5411,131.25 68.8745,124.584 69.5,117.5C 63.4908,117.666 57.4908,117.499 51.5,117C 58.0816,116.19 64.5816,116.357 71,117.5C 71.4996,124.158 71.6663,130.825 71.5,137.5 Z"/></g>
</svg>
